# xmcd
#
# Track frame offsets: 
#        150
#        16005
#        33228
#        60033
#        78967
#
# Disc length: 1329 seconds
#
# Revision: 0
# Processed by: cddbd v1.5.1PL0 Copyright (c) Steve Scherf et al.
# Submitted via: ExactAudioCopy v0.95a5
#
DISCID=23052f05
DTITLE=Mississippi Mud - The Hangin' Tree
DYEAR=2004
DGENRE=Blues
TTITLE0=Train Rolls On
TTITLE1=Voodoo Doll
TTITLE2=Olivia
TTITLE3=Hangin' Tree
TTITLE4=Runaway Soul
EXTD=
EXTT0=
EXTT1=
EXTT2=
EXTT3=
EXTT4=
PLAYORDER=
